<svg width="174" height="46" viewBox="0 0 174 46" fill="none" xmlns="http://www.w3.org/2000/svg">
<g id="logo" clip-path="url(#clip0_7207_87)">
<g id="Group">
<g id="Layer_2_00000145049591628679896540000015409654876728071071_">
<g id="Layer_2-2_00000062903775102097491350000016433292831403359402_">
<path id="Vector" d="M31.5482 5.23462C14.1209 5.23462 0 10.794 0 17.6505C0 24.5069 14.1209 30.0663 31.5482 30.0663C48.9754 30.0663 63.1029 24.5069 63.1029 17.6505C63.1029 10.794 48.9743 5.23462 31.5482 5.23462ZM31.5482 28.9026C16.397 28.9026 4.12221 23.8617 4.12221 17.6505C4.12221 11.4393 16.4112 6.39833 31.5482 6.39833C46.6852 6.39833 58.9741 11.4316 58.9741 17.6505C58.9741 23.8693 46.6994 28.9026 31.5482 28.9026Z" fill="#192F59"/>
<path id="Vector_2" d="M54.5336 20.667H54.6004C54.7491 20.667 54.8596 20.667 54.8596 20.7709C54.8596 20.8748 54.748 20.8748 54.6004 20.8748H54.5336V20.667ZM54.3707 21.297H54.5336V20.993H54.5785C54.6605 20.993 54.7119 20.993 54.8082 21.1712L54.8749 21.297H55.0827L54.9864 21.1483C54.9121 21.0301 54.8902 20.9995 54.8158 20.97C54.935 20.97 55.0313 20.8737 55.0313 20.7545C55.0302 20.69 55.0007 20.6298 54.9492 20.5916C54.8825 20.5467 54.8377 20.5467 54.5336 20.5467H54.3707V21.297ZM54.7196 20.3564C55.0291 20.3849 55.2577 20.6594 55.2281 20.9689C55.1997 21.2784 54.9252 21.507 54.6157 21.4775C54.3269 21.4512 54.1049 21.2095 54.1038 20.9186C54.1202 20.5948 54.3947 20.3433 54.7196 20.3564ZM54.7196 20.2153C54.3105 20.2153 53.9791 20.5478 53.9791 20.958C53.9791 21.3681 54.3116 21.6984 54.7218 21.6984C55.1308 21.6984 55.4622 21.3659 55.4622 20.9558C55.4622 20.9437 55.4622 20.9317 55.4611 20.9197C55.4414 20.5249 55.1144 20.2153 54.7196 20.2153Z" fill="#192F59"/>
<path id="Vector_3" d="M11.0224 21.5791C11.5638 22.0012 11.8384 21.683 11.8974 21.6305V13.269H11.3188V12.9136H15.522V13.2625H14.9511V20.8014C13.4439 21.7661 11.6929 22.2801 9.90357 22.2834H9.7253C8.82845 22.2911 8.09566 21.5714 8.08691 20.6746C8.07926 19.7777 8.79892 19.0449 9.69577 19.0362C10.5926 19.0285 11.3254 19.7482 11.3341 20.645C11.3341 20.6494 11.3341 20.6549 11.3341 20.6593C11.321 20.9775 11.2127 21.2849 11.0224 21.5419V21.5791Z" fill="#192F59"/>
<path id="Vector_4" d="M19.9548 21.2675V21.6525H23.0237V21.2893H22.4386V15.3592H22.98V15.018H19.9559V15.4106C19.5304 14.9053 18.837 14.7161 18.2136 14.936C16.6572 15.3374 15.5952 16.7767 15.6707 18.3823C15.6707 19.9835 16.8421 21.5989 18.02 21.6885C18.6959 21.81 19.3926 21.6546 19.9548 21.2587M19.1093 15.6414H19.1542C19.5884 15.6666 19.9373 16.0089 19.9701 16.442V20.2744C19.9701 20.7042 19.6146 20.9711 19.1542 21.0159H19.1028C18.6937 21.017 18.3612 20.6856 18.3602 20.2755C18.3602 20.2602 18.3602 20.2448 18.3612 20.2295V16.4343C18.3612 16.0034 18.709 15.6523 19.14 15.6491" fill="#192F59"/>
<path id="Vector_5" d="M28.22 15.3373C27.7464 14.9523 27.147 14.7565 26.5378 14.7882C24.6479 14.8561 23.155 16.4179 23.1725 18.3089C23.1112 20.2032 24.5965 21.7891 26.4908 21.8503C26.5061 21.8503 26.5225 21.8514 26.5378 21.8514C27.357 21.8733 28.1533 21.5791 28.7614 21.029V20.5324C28.2659 21.0016 27.6119 21.2663 26.9305 21.274C25.8554 21.274 25.9669 20.422 25.9669 20.422V16.0777C26.0172 15.5932 26.4449 15.2389 26.9305 15.2771C27.5681 15.2771 27.4719 15.7518 27.4719 15.7518C26.9086 15.8207 26.4919 16.3107 26.516 16.8783C26.4624 17.5061 26.9283 18.0595 27.5561 18.1131C27.6042 18.1175 27.6534 18.1186 27.7026 18.1164C28.3709 18.0781 28.897 17.5324 28.9112 16.8641C28.9593 16.2757 28.7089 15.7015 28.244 15.3373" fill="#192F59"/>
<path id="Vector_6" d="M32.4297 20.5937V14.9304H29.2426V15.2793H29.8135V20.5127C29.9918 21.2171 30.1395 21.6764 31.9113 21.8547C31.9113 21.8547 32.6528 22.1292 35.8399 20.1354V14.9468H33.2905V20.6549C33.2894 20.9568 32.4297 20.994 32.4297 20.5937Z" fill="#192F59"/>
<path id="Vector_7" d="M37.1075 17.317C37.0473 16.3162 37.8096 15.4555 38.8104 15.3942C38.8946 15.3887 38.9799 15.3898 39.0641 15.3964L36.6328 21.6152H41.9548V19.0352H41.5917C41.5917 21.3112 39.6865 21.2149 39.6865 21.2149L39.7455 21.0662L42.0806 14.9141H36.7509V17.3159H37.1075V17.317Z" fill="#192F59"/>
<path id="Vector_8" d="M43.4007 17.317C43.3406 16.3162 44.1029 15.4555 45.1036 15.3942C45.1879 15.3887 45.2732 15.3898 45.3574 15.3964L42.9337 21.6152H48.2557V19.0352H47.885C47.885 21.3112 45.9874 21.2149 45.9874 21.2149L46.0388 21.0662L48.3738 14.9141H43.0442V17.3159H43.4007V17.317Z" fill="#192F59"/>
<path id="Vector_9" d="M49.3746 13.0327C49.3746 13.6999 50.1971 14.2413 51.2132 14.2413C52.2292 14.2413 53.0517 13.6999 53.0517 13.0327C53.0517 12.3656 52.2292 11.8176 51.2132 11.8176C50.1982 11.8165 49.3746 12.3579 49.3746 13.0327Z" fill="#192F59"/>
<path id="Vector_10" d="M53.1633 14.7368L52.9336 14.4775C52.6601 14.7411 52.2981 14.8942 51.9175 14.9074H49.1974V15.2705H49.7607V21.2006H49.1974V21.5637H53.1851V21.2083H52.6295V15.1228C52.8406 15.0561 53.0265 14.926 53.1633 14.7521V14.7368Z" fill="#192F59"/>
</g>
</g>
</g>
<g id="Layer_1-2_00000091720351591988268030000005302885395147244464_">
<path id="Vector_11" d="M4.39672 40.3888H2.72662V35.4463H4.02049C4.35735 35.4277 4.69421 35.4846 5.00702 35.6115C5.22138 35.7088 5.40185 35.8674 5.52544 36.0675C5.64903 36.2677 5.71246 36.4996 5.70809 36.7347C5.71137 37.2181 5.392 37.6447 4.92718 37.7781C5.25529 37.8273 5.55715 37.9837 5.78793 38.2233C5.99683 38.4453 6.11167 38.7395 6.10729 39.0446C6.11167 39.2831 6.04386 39.5171 5.91371 39.7173C5.77043 39.9273 5.57356 40.0946 5.34388 40.2018C5.04639 40.3352 4.72265 40.3997 4.39672 40.3888ZM4.04345 36.0785H3.43426V37.5605H3.90783C4.19329 37.5889 4.47985 37.5123 4.71171 37.3439C4.87468 37.2006 4.96327 36.9906 4.95124 36.7741C4.95014 36.3125 4.64828 36.0785 4.04345 36.0785ZM4.09486 38.1937H3.43426V39.761H4.12986C4.39563 39.772 4.6625 39.737 4.91624 39.6582C5.05405 39.5981 5.16998 39.4985 5.2531 39.3727C5.33404 39.2513 5.37669 39.1081 5.37888 38.9626C5.37888 38.815 5.33076 38.6706 5.24216 38.5525C5.1492 38.4223 5.01795 38.325 4.86593 38.2736C4.61437 38.2036 4.35407 38.1762 4.09486 38.1937Z" fill="#192F59"/>
<path id="Vector_12" d="M9.07125 35.4177H9.5667L11.7782 40.3887H11.0542L10.399 38.9242H8.29034L7.67458 40.3887H6.94507L9.07125 35.4177ZM10.1092 38.2679L9.31077 36.4775L8.56923 38.2679H10.1092Z" fill="#192F59"/>
<path id="Vector_13" d="M11.7224 35.4409H15.838V36.0742H14.1275V40.39H13.4144V36.0742H11.7038L11.7224 35.4409Z" fill="#192F59"/>
<path id="Vector_14" d="M20.541 35.4463H21.2476V40.3888H20.541V38.2396H17.7652V40.3888H17.0587V35.4463H17.7652V37.5845H20.541V35.4463Z" fill="#192F59"/>
<path id="Vector_15" d="M25.4606 40.3887V35.4462H26.6976C27.1274 35.4243 27.5496 35.5577 27.8886 35.8224C28.1774 36.0674 28.3381 36.4305 28.3272 36.8089C28.3327 37.0736 28.2572 37.335 28.1106 37.5559C27.9564 37.7725 27.7399 37.9355 27.4894 38.023C27.6644 38.1411 27.8208 38.2833 27.9564 38.4451C28.185 38.7459 28.3972 39.0598 28.5897 39.3857C28.7603 39.6646 28.9036 39.8757 29.0053 40.019L29.2678 40.3723H28.4245L28.208 40.0474C28.197 40.0255 28.1839 40.0037 28.1686 39.9851L28.0319 39.7915L27.8099 39.4492L27.5758 39.0904C27.4544 38.9187 27.3188 38.7557 27.1711 38.6059C27.076 38.5053 26.9666 38.4189 26.8463 38.3489C26.6899 38.2833 26.5193 38.2559 26.3509 38.269H26.1682V40.4182L25.4606 40.3887ZM26.3782 36.0499H26.1671V37.6063H26.4351C26.6833 37.6238 26.9338 37.592 27.17 37.5155C27.3013 37.4597 27.4107 37.3645 27.4839 37.242C27.5583 37.1119 27.5955 36.9642 27.5922 36.8144C27.5933 36.6657 27.5518 36.5191 27.473 36.3922C27.3899 36.2665 27.2674 36.1724 27.1252 36.1243C26.8813 36.0641 26.6298 36.039 26.3782 36.0499Z" fill="#192F59"/>
<path id="Vector_16" d="M30.3571 35.4463H33.1559V36.0796H31.0637V37.5845H33.087V38.2178H31.0637V39.7511H33.2237V40.3844H30.3735L30.3571 35.4463Z" fill="#192F59"/>
<path id="Vector_17" d="M38.4462 35.4463H39.1079V40.3888H38.4014V36.5466L36.8789 38.4562H36.7477L35.2198 36.5466V40.3888H34.5067V35.4463H35.1738L36.8155 37.4751L38.4462 35.4463Z" fill="#192F59"/>
<path id="Vector_18" d="M43.1437 35.3774C43.8491 35.3544 44.5349 35.6158 45.0479 36.1014C45.5575 36.5772 45.8364 37.2509 45.8113 37.9487C45.8299 38.6345 45.5488 39.294 45.0413 39.7555C44.5141 40.24 43.8185 40.4981 43.1032 40.4741C42.4109 40.4949 41.7383 40.2356 41.2395 39.7555C40.7441 39.2874 40.4739 38.629 40.498 37.9487C40.4794 37.2607 40.7496 36.5969 41.245 36.1189C41.7525 35.6256 42.4372 35.3588 43.1437 35.3774ZM43.1437 36.05C42.6253 36.0314 42.1222 36.2217 41.747 36.5805C41.3741 36.9294 41.1663 37.4204 41.1772 37.9312C41.1695 38.4365 41.3763 38.9221 41.747 39.2655C42.5257 39.9808 43.7223 39.9808 44.4999 39.2655C44.8718 38.9177 45.0796 38.4288 45.0697 37.9203C45.0774 37.4182 44.8696 36.937 44.4999 36.598C44.1543 36.2534 43.6884 36.0566 43.2006 36.0511L43.1437 36.05Z" fill="#192F59"/>
<path id="Vector_19" d="M47.231 40.3833V35.4463H48.9011C49.449 35.4222 49.9959 35.5261 50.4968 35.7481C50.8851 35.9527 51.2077 36.26 51.4319 36.6373C51.6561 37.0376 51.7666 37.4904 51.7513 37.9487C51.7524 38.2735 51.6878 38.5951 51.5632 38.8948C51.4319 39.1988 51.2383 39.47 50.9933 39.6932C50.7538 39.9272 50.4683 40.1077 50.1555 40.2236C49.9915 40.2936 49.8187 40.3428 49.6426 40.3724C49.3473 40.4074 49.0498 40.4205 48.7534 40.4117L47.231 40.3833ZM48.8212 36.0784H47.9375V39.75H48.8442C49.1198 39.75 49.3954 39.7194 49.6656 39.6593C49.8362 39.6188 50.0013 39.5554 50.1555 39.4711C50.2868 39.3968 50.4082 39.3049 50.5143 39.1977C50.8643 38.8412 51.0546 38.3577 51.0393 37.8579C51.0557 37.3679 50.8599 36.8944 50.5033 36.5586C50.3666 36.435 50.2124 36.3322 50.0473 36.2512C49.8941 36.1769 49.7312 36.1244 49.5628 36.097C49.3156 36.0708 49.0684 36.0642 48.8212 36.0784Z" fill="#192F59"/>
<path id="Vector_20" d="M53.1993 35.4463H55.9982V36.0796H53.9059V37.5845H55.9292V38.2178H53.9059V39.7511H56.066V40.3844H53.2157L53.1993 35.4463Z" fill="#192F59"/>
<path id="Vector_21" d="M57.3609 35.4463H58.0674V39.7446H60.3019V40.3888H57.3609V35.4463Z" fill="#192F59"/>
</g>
<path id="Vector_22" d="M99.05 35.1411C98.8061 35.5195 98.572 35.8334 98.3905 36.1758C98.1958 36.5422 98.2111 36.9687 98.5917 37.1579C98.8455 37.2837 99.2687 37.2706 99.5257 37.1404C99.8976 36.9534 99.856 36.5312 99.692 36.1944C99.5214 35.8466 99.2906 35.5305 99.05 35.1411Z" fill="#336898"/>
<path id="Vector_23" d="M95.992 35.1531C95.7525 35.5107 95.5337 35.7918 95.3631 36.1002C95.1575 36.4721 95.117 36.9183 95.5118 37.1349C95.7656 37.2738 96.2184 37.2661 96.4754 37.1272C96.8593 36.9205 96.7827 36.4819 96.6056 36.133C96.4393 35.8071 96.2173 35.5085 95.992 35.1531Z" fill="#336898"/>
<path id="Vector_24" d="M102.106 31.4858C101.887 31.8118 101.669 32.0961 101.496 32.4057C101.288 32.7742 101.246 33.168 101.601 33.4731C101.905 33.7345 102.273 33.7334 102.588 33.4906C102.971 33.1953 102.903 32.7994 102.71 32.4319C102.544 32.118 102.329 31.8315 102.106 31.4858Z" fill="#336898"/>
<path id="Vector_25" d="M95.993 31.4683C95.7459 31.8522 95.5107 32.1639 95.3324 32.5062C95.1421 32.8704 95.1531 33.298 95.5337 33.4884C95.7863 33.6141 96.2074 33.6032 96.4633 33.4752C96.8352 33.2893 96.7958 32.8682 96.6339 32.5303C96.4666 32.1835 96.2369 31.8664 95.993 31.4683Z" fill="#336898"/>
<path id="Vector_26" d="M102.103 27.7935C101.849 28.2025 101.607 28.5339 101.431 28.897C101.259 29.2492 101.293 29.6571 101.664 29.83C101.914 29.9459 102.309 29.9448 102.559 29.8267C102.936 29.6462 102.93 29.2339 102.763 28.8883C102.585 28.5252 102.346 28.1927 102.103 27.7935Z" fill="#336898"/>
<path id="Vector_27" d="M102.104 35.1389C101.864 35.5184 101.624 35.8487 101.44 36.2086C101.263 36.5564 101.279 36.9742 101.64 37.1492C101.897 37.2738 102.316 37.2695 102.574 37.1437C102.946 36.961 102.925 36.5443 102.751 36.2009C102.57 35.8422 102.333 35.5108 102.104 35.1389Z" fill="#336898"/>
<path id="Vector_28" d="M99.05 31.4695C98.8061 31.8512 98.5709 32.1771 98.3828 32.5282C98.1958 32.8782 98.2166 33.2905 98.5688 33.4721C98.8214 33.6033 99.237 33.6077 99.5006 33.4896C99.8867 33.3168 99.8593 32.8935 99.6997 32.5544C99.529 32.1902 99.2884 31.8599 99.05 31.4695Z" fill="#336898"/>
<path id="Vector_29" d="M99.0467 27.7988C98.8017 28.1882 98.5644 28.5196 98.3774 28.8761C98.1926 29.2283 98.2275 29.6395 98.5819 29.8134C98.8378 29.9392 99.2545 29.9359 99.5138 29.8124C99.8889 29.6319 99.8594 29.2108 99.6964 28.8718C99.5291 28.524 99.2972 28.2068 99.0467 27.7988Z" fill="#336898"/>
<path id="Vector_30" d="M70.6692 45.9995C70.643 45.8179 70.5937 45.6364 70.5937 45.4537C70.5905 30.4797 70.5894 15.5056 70.5981 0.531611C70.5981 0.325992 70.4166 -0.0721194 70.9754 0.0110029C70.9754 15.3438 70.9754 30.6711 70.9754 45.9984C70.8737 45.9995 70.7709 45.9995 70.6692 45.9995Z" fill="#192F59"/>
<path id="Vector_31" d="M99.05 35.1411C99.2906 35.5294 99.5214 35.8466 99.6909 36.1933C99.856 36.5312 99.8965 36.9523 99.5246 37.1393C99.2676 37.2684 98.8444 37.2826 98.5906 37.1568C98.21 36.9676 98.1947 36.5422 98.3894 36.1747C98.572 35.8334 98.8061 35.5195 99.05 35.1411Z" fill="#336898"/>
<path id="Vector_32" d="M95.992 35.1531C96.2173 35.5085 96.4393 35.8071 96.6067 36.1341C96.7849 36.483 96.8604 36.9216 96.4765 37.1283C96.2195 37.2672 95.7656 37.2738 95.5129 37.136C95.1181 36.9205 95.1586 36.4732 95.3642 36.1013C95.5337 35.7929 95.7525 35.5107 95.992 35.1531Z" fill="#336898"/>
<path id="Vector_33" d="M102.106 31.4858C102.329 31.8304 102.544 32.118 102.71 32.4319C102.903 32.7983 102.97 33.1953 102.588 33.4906C102.273 33.7334 101.905 33.7345 101.601 33.4731C101.246 33.1691 101.287 32.7742 101.496 32.4057C101.669 32.0972 101.887 31.8118 102.106 31.4858Z" fill="#336898"/>
<path id="Vector_34" d="M95.993 31.4683C96.2369 31.8664 96.4666 32.1835 96.6329 32.5303C96.7947 32.8682 96.8341 33.2893 96.4622 33.4752C96.2063 33.6032 95.7852 33.6152 95.5326 33.4884C95.152 33.298 95.1421 32.8704 95.3314 32.5062C95.5096 32.165 95.7448 31.8522 95.993 31.4683Z" fill="#336898"/>
<path id="Vector_35" d="M102.103 27.7935C102.346 28.1927 102.585 28.5252 102.762 28.8883C102.93 29.2339 102.935 29.6462 102.558 29.8267C102.308 29.9459 101.913 29.947 101.663 29.83C101.292 29.6571 101.258 29.2492 101.43 28.897C101.607 28.5339 101.849 28.2025 102.103 27.7935Z" fill="#336898"/>
<path id="Vector_36" d="M102.104 35.1389C102.333 35.5108 102.57 35.8422 102.751 36.2009C102.925 36.5432 102.946 36.961 102.574 37.1437C102.316 37.2706 101.897 37.2749 101.64 37.1492C101.279 36.9742 101.263 36.5564 101.44 36.2086C101.624 35.8487 101.864 35.5184 102.104 35.1389Z" fill="#336898"/>
<path id="Vector_37" d="M99.05 31.4695C99.2884 31.8599 99.5291 32.1913 99.6997 32.5544C99.8594 32.8935 99.8867 33.3168 99.5006 33.4896C99.237 33.6066 98.8214 33.6033 98.5688 33.4721C98.2166 33.2894 98.1969 32.8771 98.3828 32.5282C98.571 32.176 98.8061 31.8512 99.05 31.4695Z" fill="#336898"/>
<path id="Vector_38" d="M99.0467 27.7988C99.2972 28.2068 99.5291 28.524 99.6953 28.8718C99.8583 29.2108 99.8878 29.6319 99.5127 29.8124C99.2534 29.937 98.8367 29.9392 98.5808 29.8134C98.2265 29.6385 98.1914 29.2283 98.3763 28.8761C98.5644 28.5196 98.8017 28.1882 99.0467 27.7988Z" fill="#336898"/>
<path id="Vector_39" d="M103.369 23.5858C103.204 23.1549 102.789 22.9165 102.37 22.9416C102.188 22.9526 102.019 22.8443 101.934 22.6824C101.008 20.9292 98.9373 20.1756 97.1272 20.8472C96.8899 20.9347 96.6285 20.8505 96.4721 20.6514C94.6521 18.324 91.8424 16.9218 88.8434 16.9218C86.3016 16.9218 83.9873 17.9084 82.2582 19.5161V10.1649C82.2582 9.35662 81.6676 8.63477 80.8626 8.55821C79.9395 8.47072 79.163 9.19366 79.163 10.0982V37.3065C80.8724 37.3065 82.2582 35.9207 82.2582 34.2113V25.7C82.7011 22.4571 85.4813 19.9471 88.8434 19.9471C90.6393 19.9471 92.3367 20.6787 93.5715 21.9245C93.8122 22.1673 93.7761 22.5709 93.5037 22.7776C92.0064 23.9129 91.5077 25.9975 92.4144 27.7124C92.4997 27.8743 92.4942 28.0744 92.3827 28.2188C92.1191 28.56 92.0885 29.0533 92.375 29.4372C92.6758 29.8408 93.2467 29.9316 93.6919 29.6964L102.855 24.8524C103.312 24.6128 103.554 24.0682 103.369 23.5858ZM102.657 24.3755L93.4064 29.2655C93.168 29.3913 92.8705 29.2994 92.7436 29.061C92.6178 28.8225 92.7097 28.525 92.9481 28.3982L102.199 23.5082C102.437 23.3824 102.735 23.4743 102.862 23.7127C102.987 23.9511 102.895 24.2497 102.657 24.3755Z" fill="#336898"/>
<g id="Group_2">
<path id="Vector_40" d="M109.878 34.1414H113.917V33.25H109.878V31.0177H114.393V30.1274H108.875V37.3241H114.446V36.4338H109.878V34.1414Z" fill="#336898"/>
<path id="Vector_41" d="M124.994 30.1274H123.806L121.595 32.947L119.362 30.1274H118.165L120.969 33.6558L118.059 37.3241H119.236L121.563 34.3536L123.89 37.3241H125.099L122.189 33.6459L124.994 30.1274Z" fill="#336898"/>
<path id="Vector_42" d="M131.98 30.1274H129.126V37.3241H130.129V34.8435H131.843C133.331 34.8435 134.834 34.1031 134.834 32.4505C134.833 31.0396 133.713 30.1274 131.98 30.1274ZM131.873 33.9533H130.128V31.0276H131.915C133.125 31.0276 133.819 31.5569 133.819 32.48C133.819 33.3747 133.056 33.9533 131.873 33.9533Z" fill="#336898"/>
<path id="Vector_43" d="M139.941 34.1414H143.98V33.25H139.941V31.0177H144.456V30.1274H138.938V37.3241H144.508V36.4338H139.941V34.1414Z" fill="#336898"/>
<path id="Vector_44" d="M154.797 32.3094C154.797 30.9838 153.714 30.1274 152.038 30.1274H148.772V37.3241H149.775V34.5931H151.766L153.913 37.3241H155.152L152.857 34.4246C154.092 34.1676 154.797 33.4031 154.797 32.3094ZM149.774 31.0276H151.974C153.123 31.0276 153.783 31.5055 153.783 32.3389C153.783 33.1723 153.069 33.7115 151.964 33.7115H149.774V31.0276Z" fill="#336898"/>
<path id="Vector_45" d="M158.638 31.0276H161.123V37.3241H162.135V31.0276H164.62V30.1274H158.638V31.0276Z" fill="#336898"/>
<path id="Vector_46" d="M171.522 33.2621C169.88 32.9285 169.579 32.5643 169.579 31.9682C169.579 31.3437 170.193 30.9073 171.071 30.9073C171.837 30.9073 172.498 31.1446 173.156 31.6532L173.221 31.7035L173.812 30.9598L173.744 30.9073C172.935 30.2904 172.142 30.0269 171.092 30.0269C169.634 30.0269 168.576 30.8734 168.576 32.0382C168.576 33.3605 169.597 33.8428 171.129 34.1589C172.698 34.4739 172.986 34.8315 172.986 35.4221C172.986 36.0926 172.357 36.5432 171.42 36.5432C170.462 36.5432 169.742 36.261 168.937 35.5698L168.875 35.5162L168.245 36.2238L168.31 36.2796C169.231 37.0605 170.209 37.4247 171.388 37.4247C172.136 37.4247 172.782 37.2311 173.254 36.8637C173.741 36.4852 173.999 35.9592 173.999 35.3423C174 34.2442 173.258 33.6219 171.522 33.2621Z" fill="#336898"/>
</g>
<g id="Group_3">
<path id="Vector_47" d="M119.482 17.0182C120.713 16.4276 122.084 15.2606 122.084 12.9922C122.084 10.306 119.832 8.57031 116.347 8.57031H108.875V26.0927H116.669C120.605 26.0927 123.049 24.2367 123.049 21.2486C123.05 19.1826 121.882 17.7969 119.482 17.0182ZM116.024 16.304H110.976V10.4963H116.173C118.527 10.4963 119.932 11.531 119.932 13.2634C119.932 15.1676 118.472 16.304 116.024 16.304ZM116.719 24.1634H110.977V18.207H116.372C119.291 18.207 120.9 19.2428 120.9 21.1229C120.899 23.027 119.336 24.1634 116.719 24.1634Z" fill="#1A1E4F"/>
<path id="Vector_48" d="M134.672 8.44556H132.73L124.746 26.0915H126.939L128.996 21.5045H138.333L140.366 26.0915H142.657L134.695 8.49477L134.672 8.44556ZM137.489 19.5763H129.838L133.676 11.0147L137.489 19.5763Z" fill="#1A1E4F"/>
<path id="Vector_49" d="M142.64 10.5465H148.466V26.0915H150.617V10.5465H156.444V8.56909H142.64V10.5465Z" fill="#1A1E4F"/>
<path id="Vector_50" d="M171.423 8.56909V16.2798H161.574V8.56909H159.448V26.0915H161.574V18.2813H171.423V26.0915H173.549V8.56909H171.423Z" fill="#1A1E4F"/>
</g>
<path id="Vector_51" d="M102.785 28.7712L102.786 28.7701L102.775 28.7537C102.771 28.7472 102.768 28.7417 102.763 28.7351L102.099 27.707L101.414 28.7701L101.416 28.7723C101.34 28.8948 101.294 29.0381 101.294 29.1923C101.294 29.6374 101.655 29.9984 102.1 29.9984C102.546 29.9984 102.906 29.6374 102.906 29.1923C102.906 29.0381 102.861 28.8948 102.785 28.7712Z" fill="#336898"/>
<path id="Vector_52" d="M102.785 32.4406L102.786 32.4396L102.775 32.4231C102.771 32.4166 102.768 32.4111 102.763 32.4046L102.099 31.3765L101.414 32.4396L101.416 32.4417C101.34 32.5642 101.294 32.7075 101.294 32.8617C101.294 33.3069 101.655 33.6678 102.1 33.6678C102.546 33.6678 102.906 33.3069 102.906 32.8617C102.906 32.7064 102.861 32.5631 102.785 32.4406Z" fill="#336898"/>
<path id="Vector_53" d="M102.785 36.1089L102.786 36.1078L102.775 36.0914C102.771 36.0848 102.768 36.0793 102.763 36.0728L102.099 35.0447L101.414 36.1078L101.416 36.11C101.34 36.2324 101.294 36.3757 101.294 36.5299C101.294 36.9751 101.655 37.336 102.1 37.336C102.546 37.336 102.906 36.9751 102.906 36.5299C102.906 36.3746 102.861 36.2314 102.785 36.1089Z" fill="#336898"/>
<path id="Vector_54" d="M99.7073 28.7712L99.7084 28.7701L99.6974 28.7537C99.6931 28.7472 99.6898 28.7417 99.6854 28.7351L99.0215 27.707L98.3358 28.7701L98.338 28.7723C98.2625 28.8948 98.2166 29.0381 98.2166 29.1923C98.2166 29.6374 98.5775 29.9984 99.0226 29.9984C99.4678 29.9984 99.8287 29.6374 99.8287 29.1923C99.8298 29.0381 99.7838 28.8948 99.7073 28.7712Z" fill="#336898"/>
<path id="Vector_55" d="M99.7073 32.4406L99.7084 32.4396L99.6974 32.4231C99.6931 32.4166 99.6898 32.4111 99.6854 32.4046L99.0215 31.3765L98.3358 32.4396L98.338 32.4417C98.2625 32.5642 98.2166 32.7075 98.2166 32.8617C98.2166 33.3069 98.5775 33.6678 99.0226 33.6678C99.4678 33.6678 99.8287 33.3069 99.8287 32.8617C99.8298 32.7064 99.7838 32.5631 99.7073 32.4406Z" fill="#336898"/>
<path id="Vector_56" d="M99.7073 36.1089L99.7084 36.1078L99.6974 36.0914C99.6931 36.0848 99.6898 36.0793 99.6854 36.0728L99.0215 35.0447L98.3358 36.1078L98.338 36.11C98.2625 36.2324 98.2166 36.3757 98.2166 36.5299C98.2166 36.9751 98.5775 37.336 99.0226 37.336C99.4678 37.336 99.8287 36.9751 99.8287 36.5299C99.8298 36.3746 99.7838 36.2314 99.7073 36.1089Z" fill="#336898"/>
<path id="Vector_57" d="M96.6307 32.4406L96.6318 32.4396L96.6208 32.4231C96.6165 32.4166 96.6132 32.4111 96.6088 32.4046L95.9449 31.3765L95.2592 32.4396L95.2614 32.4417C95.1859 32.5642 95.14 32.7075 95.14 32.8617C95.14 33.3069 95.5009 33.6678 95.946 33.6678C96.3912 33.6678 96.7521 33.3069 96.7521 32.8617C96.7521 32.7064 96.7062 32.5631 96.6307 32.4406Z" fill="#336898"/>
<path id="Vector_58" d="M96.6307 36.1089L96.6318 36.1078L96.6208 36.0914C96.6165 36.0848 96.6132 36.0793 96.6088 36.0728L95.9449 35.0447L95.2592 36.1078L95.2614 36.11C95.1859 36.2324 95.14 36.3757 95.14 36.5299C95.14 36.9751 95.5009 37.336 95.946 37.336C96.3912 37.336 96.7521 36.9751 96.7521 36.5299C96.7521 36.3746 96.7062 36.2314 96.6307 36.1089Z" fill="#336898"/>
</g>
<defs>
<clipPath id="clip0_7207_87">
<rect width="174" height="45.9994" fill="white"/>
</clipPath>
</defs>
</svg>
