<svg width="238" height="62" viewBox="0 0 238 62" fill="none" xmlns="http://www.w3.org/2000/svg">
<g id="bath-experts-logo-color-dark 1" clip-path="url(#clip0_7244_118)">
<g id="Group">
<g id="Layer_2_00000145049591628679896540000015409654876728071071_">
<g id="Layer_2-2_00000062903775102097491350000016433292831403359402_">
<path id="Vector" d="M43.1521 7.05542C19.3148 7.05542 0 14.5485 0 23.79C0 33.0315 19.3148 40.5246 43.1521 40.5246C66.9893 40.5246 86.3132 33.0315 86.3132 23.79C86.3132 14.5485 66.9878 7.05542 43.1521 7.05542ZM43.1521 38.9561C22.428 38.9561 5.63842 32.1618 5.63842 23.79C5.63842 15.4183 22.4475 8.62392 43.1521 8.62392C63.8567 8.62392 80.6658 15.408 80.6658 23.79C80.6658 32.1721 63.8762 38.9561 43.1521 38.9561Z" fill="white"/>
<path id="Vector_2" d="M74.592 27.8557H74.6833C74.8867 27.8557 75.0378 27.8557 75.0378 27.9957C75.0378 28.1357 74.8852 28.1357 74.6833 28.1357H74.592V27.8557ZM74.3691 28.7048H74.592V28.295H74.6534C74.7656 28.295 74.8359 28.295 74.9675 28.5352L75.0588 28.7048H75.343L75.2114 28.5043C75.1096 28.3451 75.0797 28.3038 74.978 28.264C75.1411 28.264 75.2727 28.1343 75.2727 27.9736C75.2712 27.8866 75.2308 27.8055 75.1605 27.7539C75.0693 27.6935 75.0079 27.6935 74.592 27.6935H74.3691V28.7048ZM74.8463 27.437C75.2697 27.4753 75.5824 27.8453 75.542 28.2625C75.5031 28.6797 75.1276 28.9878 74.7042 28.948C74.3093 28.9126 74.0056 28.5868 74.0041 28.1947C74.0265 27.7584 74.402 27.4193 74.8463 27.437ZM74.8463 27.2468C74.2868 27.2468 73.8336 27.695 73.8336 28.2478C73.8336 28.8006 74.2883 29.2458 74.8493 29.2458C75.4088 29.2458 75.8621 28.7976 75.8621 28.2448C75.8621 28.2286 75.8621 28.2124 75.8606 28.1962C75.8337 27.664 75.3864 27.2468 74.8463 27.2468Z" fill="white"/>
<path id="Vector_3" d="M15.0767 29.0852C15.8172 29.6543 16.1927 29.2253 16.2735 29.1545V17.8846H15.4821V17.4055H21.2312V17.8758H20.4503V28.0371C18.3888 29.3373 15.9937 30.0302 13.5463 30.0346H13.3024C12.0757 30.0449 11.0734 29.0749 11.0614 27.8661C11.051 26.6573 12.0353 25.6696 13.262 25.6578C14.4888 25.6475 15.4911 26.6175 15.503 27.8263C15.503 27.8322 15.503 27.8396 15.503 27.8455C15.4851 28.2745 15.337 28.6887 15.0767 29.0351V29.0852Z" fill="white"/>
<path id="Vector_4" d="M27.2945 28.6651V29.184H31.4923V28.6946H30.6919V20.7018H31.4324V20.2418H27.296V20.771C26.7141 20.09 25.7656 19.835 24.9129 20.1313C22.7841 20.6723 21.3314 22.6123 21.4347 24.7763C21.4347 26.9345 23.0369 29.1118 24.6481 29.2327C25.5726 29.3963 26.5256 29.187 27.2945 28.6533M26.1381 21.0821H26.1994C26.7933 21.116 27.2706 21.5774 27.3154 22.1612V27.3266C27.3154 27.906 26.8292 28.2656 26.1994 28.3261H26.1291C25.5696 28.3276 25.1148 27.8809 25.1133 27.3281C25.1133 27.3074 25.1133 27.2868 25.1148 27.2662V22.1509C25.1148 21.57 25.5906 21.0968 26.18 21.0924" fill="white"/>
<path id="Vector_5" d="M38.5998 20.6722C37.952 20.1533 37.1322 19.8895 36.2989 19.9322C33.7138 20.0236 31.6718 22.1287 31.6957 24.6775C31.612 27.2308 33.6435 29.3683 36.2346 29.4508C36.2555 29.4508 36.278 29.4523 36.2989 29.4523C37.4194 29.4818 38.5085 29.0852 39.3403 28.3438V27.6745C38.6626 28.3069 37.768 28.6636 36.836 28.674C35.3654 28.674 35.518 27.5256 35.518 27.5256V21.6702C35.5868 21.0172 36.1718 20.5396 36.836 20.5912C37.7082 20.5912 37.5765 21.231 37.5765 21.231C36.8061 21.3238 36.2361 21.9842 36.269 22.7493C36.1957 23.5955 36.833 24.3414 37.6917 24.4137C37.7575 24.4195 37.8248 24.421 37.8922 24.4181C38.8062 24.3665 39.5258 23.6309 39.5452 22.7302C39.6111 21.9371 39.2685 21.1631 38.6327 20.6722" fill="white"/>
<path id="Vector_6" d="M44.3579 27.757V20.1238H39.9985V20.594H40.7794V27.6479C41.0233 28.5972 41.2253 29.2164 43.6488 29.4567C43.6488 29.4567 44.6631 29.8267 49.0224 27.1393V20.1459H45.5352V27.8395C45.5337 28.2464 44.3579 28.2965 44.3579 27.757Z" fill="white"/>
<path id="Vector_7" d="M50.7563 23.3405C50.674 21.9917 51.7167 20.8315 53.0855 20.749C53.2007 20.7416 53.3174 20.7431 53.4326 20.7519L50.107 29.134H57.3865V25.6564H56.8899C56.8899 28.7241 54.2838 28.5944 54.2838 28.5944L54.3646 28.3939L57.5586 20.1018H50.2686V23.3391H50.7563V23.3405Z" fill="white"/>
<path id="Vector_8" d="M59.3642 23.3405C59.2819 21.9917 60.3247 20.8315 61.6935 20.749C61.8087 20.7416 61.9254 20.7431 62.0406 20.7519L58.7254 29.134H66.005V25.6564H65.4978C65.4978 28.7241 62.9023 28.5944 62.9023 28.5944L62.9726 28.3939L66.1665 20.1018H58.8765V23.3391H59.3642V23.3405Z" fill="white"/>
<path id="Vector_9" d="M67.5354 17.5663C67.5354 18.4655 68.6604 19.1952 70.0502 19.1952C71.44 19.1952 72.5649 18.4655 72.5649 17.5663C72.5649 16.667 71.44 15.9285 70.0502 15.9285C68.6619 15.927 67.5354 16.6567 67.5354 17.5663Z" fill="white"/>
<path id="Vector_10" d="M72.7175 19.8628L72.4034 19.5134C72.0294 19.8687 71.5342 20.0751 71.0136 20.0928H67.293V20.5822H68.0635V28.5751H67.293V29.0645H72.7474V28.5854H71.9875V20.3832C72.2762 20.2933 72.5305 20.1178 72.7175 19.8834V19.8628Z" fill="white"/>
</g>
</g>
</g>
<g id="Layer_1-2_00000091720351591988268030000005302885395147244464_">
<path id="Vector_11" d="M6.01391 54.4376H3.72952V47.7759H5.49929C5.96006 47.7508 6.42082 47.8275 6.84868 47.9985C7.1419 48.1297 7.38874 48.3434 7.55778 48.6132C7.72683 48.883 7.8136 49.1955 7.80762 49.5124C7.8121 50.164 7.37527 50.7389 6.73947 50.9188C7.18827 50.9851 7.60117 51.1959 7.91682 51.5188C8.20256 51.818 8.35964 52.2146 8.35366 52.6259C8.35964 52.9472 8.26689 53.2627 8.08886 53.5325C7.89289 53.8155 7.62361 54.041 7.30945 54.1855C6.90254 54.3654 6.45972 54.4523 6.01391 54.4376ZM5.53071 48.6279H4.69743V50.6254H5.3452C5.73566 50.6638 6.12761 50.5606 6.44476 50.3335C6.66766 50.1404 6.78884 49.8574 6.77238 49.5655C6.77089 48.9434 6.35799 48.6279 5.53071 48.6279ZM5.60102 51.479H4.69743V53.5914H5.64889C6.01242 53.6062 6.37744 53.559 6.72451 53.4529C6.91301 53.3718 7.07158 53.2376 7.18528 53.0681C7.29598 52.9045 7.35433 52.7114 7.35732 52.5153C7.35732 52.3163 7.2915 52.1217 7.17032 51.9625C7.04316 51.7871 6.86364 51.6559 6.6557 51.5866C6.31162 51.4922 5.95557 51.4554 5.60102 51.479Z" fill="white"/>
<path id="Vector_12" d="M12.4078 47.7375H13.0855L16.1104 54.4376H15.1201L14.224 52.4637H11.3397L10.4974 54.4376H9.4996L12.4078 47.7375ZM13.8275 51.5792L12.7354 49.166L11.7212 51.5792H13.8275Z" fill="white"/>
<path id="Vector_13" d="M16.0341 47.7686H21.6636V48.6221H19.3238V54.4391H18.3484V48.6221H16.0087L16.0341 47.7686Z" fill="white"/>
<path id="Vector_14" d="M28.0964 47.7759H29.0628V54.4376H28.0964V51.5409H24.2995V54.4376H23.3331V47.7759H24.2995V50.6579H28.0964V47.7759Z" fill="white"/>
<path id="Vector_15" d="M34.8253 54.4375V47.7758H36.5173C37.1053 47.7463 37.6827 47.9262 38.1465 48.2829C38.5414 48.6132 38.7613 49.1026 38.7464 49.6126C38.7538 49.9694 38.6506 50.3217 38.4502 50.6195C38.2392 50.9114 37.943 51.131 37.6004 51.2489C37.8398 51.4081 38.0537 51.5998 38.2392 51.818C38.5519 52.2234 38.8421 52.6464 39.1054 53.0857C39.3388 53.4616 39.5348 53.7462 39.6739 53.9393L40.0329 54.4154H38.8795L38.5833 53.9776C38.5683 53.9481 38.5504 53.9186 38.5294 53.8936L38.3424 53.6327L38.0388 53.1712L37.7186 52.6877C37.5526 52.4563 37.3671 52.2366 37.1651 52.0347C37.0349 51.899 36.8853 51.7826 36.7208 51.6882C36.5069 51.5998 36.2735 51.5629 36.0431 51.5806H35.7933V54.4773L34.8253 54.4375ZM36.0805 48.5896H35.7918V50.6873H36.1583C36.4979 50.7109 36.8405 50.6681 37.1636 50.5649C37.3431 50.4898 37.4927 50.3615 37.5929 50.1964C37.6947 50.021 37.7455 49.822 37.7411 49.62C37.7425 49.4195 37.6857 49.222 37.578 49.051C37.4643 48.8814 37.2967 48.7547 37.1023 48.6898C36.7687 48.6087 36.4246 48.5748 36.0805 48.5896Z" fill="white"/>
<path id="Vector_16" d="M41.5229 47.7759H45.3512V48.6294H42.4894V50.6579H45.257V51.5114H42.4894V53.5782H45.444V54.4317H41.5454L41.5229 47.7759Z" fill="white"/>
<path id="Vector_17" d="M52.5873 47.7759H53.4924V54.4376H52.526V49.2589L50.4436 51.8328H50.2641L48.1742 49.2589V54.4376H47.1988V47.7759H48.1113L50.3568 50.5104L52.5873 47.7759Z" fill="white"/>
<path id="Vector_18" d="M59.0127 47.683C59.9776 47.6521 60.9156 48.0044 61.6172 48.6589C62.3143 49.3002 62.6958 50.2083 62.6614 51.1488C62.6868 52.0731 62.3024 52.962 61.6082 53.5841C60.8872 54.2371 59.9357 54.585 58.9573 54.5526C58.0103 54.5806 57.0903 54.2312 56.4081 53.5841C55.7304 52.9531 55.3609 52.0657 55.3938 51.1488C55.3684 50.2215 55.7379 49.3267 56.4156 48.6825C57.1097 48.0177 58.0462 47.658 59.0127 47.683ZM59.0127 48.5896C58.3036 48.5646 57.6154 48.8211 57.1023 49.3046C56.5921 49.7749 56.3079 50.4368 56.3229 51.1252C56.3124 51.8062 56.5951 52.4608 57.1023 52.9237C58.1674 53.8878 59.804 53.8878 60.8677 52.9237C61.3763 52.4549 61.6606 51.7959 61.6471 51.1104C61.6576 50.4338 61.3733 49.7852 60.8677 49.3282C60.395 48.8638 59.7577 48.5985 59.0905 48.5911L59.0127 48.5896Z" fill="white"/>
<path id="Vector_19" d="M64.6032 54.4302V47.7758H66.8876C67.6371 47.7434 68.3851 47.8834 69.0703 48.1827C69.6013 48.4584 70.0427 48.8726 70.3493 49.3812C70.656 49.9207 70.8071 50.531 70.7862 51.1487C70.7877 51.5865 70.6994 52.0199 70.5289 52.4238C70.3493 52.8336 70.0846 53.1992 69.7494 53.5C69.4218 53.8154 69.0314 54.0587 68.6035 54.2149C68.3791 54.3093 68.1427 54.3756 67.9019 54.4154C67.498 54.4626 67.0911 54.4803 66.6856 54.4685L64.6032 54.4302ZM66.7784 48.6279H65.5696V53.5766H66.8098C67.1868 53.5766 67.5638 53.5353 67.9333 53.4543C68.1667 53.3997 68.3926 53.3142 68.6035 53.2007C68.783 53.1005 68.9491 52.9766 69.0942 52.8322C69.5729 52.3516 69.8332 51.7 69.8123 51.0263C69.8347 50.3659 69.5669 49.7276 69.0792 49.275C68.8922 49.1085 68.6813 48.9699 68.4554 48.8608C68.246 48.7606 68.0231 48.6898 67.7927 48.6529C67.4546 48.6176 67.1165 48.6087 66.7784 48.6279Z" fill="white"/>
<path id="Vector_20" d="M72.7669 47.7759H76.5952V48.6294H73.7333V50.6579H76.5009V51.5114H73.7333V53.5782H76.6879V54.4317H72.7893L72.7669 47.7759Z" fill="white"/>
<path id="Vector_21" d="M78.4592 47.7759H79.4256V53.5693H82.4819V54.4376H78.4592V47.7759Z" fill="white"/>
</g>
<path id="Vector_22" d="M135.482 47.3645C135.149 47.8746 134.828 48.2976 134.58 48.7591C134.314 49.2529 134.335 49.8278 134.855 50.0828C135.202 50.2524 135.781 50.2347 136.133 50.0593C136.642 49.8072 136.585 49.2382 136.36 48.7841C136.127 48.3153 135.811 47.8893 135.482 47.3645Z" fill="white"/>
<path id="Vector_23" d="M131.299 47.3809C130.972 47.8629 130.673 48.2418 130.439 48.6575C130.158 49.1587 130.103 49.7601 130.643 50.052C130.99 50.2392 131.609 50.2289 131.961 50.0417C132.486 49.7631 132.381 49.172 132.139 48.7017C131.911 48.2624 131.608 47.86 131.299 47.3809Z" fill="white"/>
<path id="Vector_24" d="M139.662 42.438C139.363 42.8773 139.065 43.2606 138.827 43.6778C138.543 44.1745 138.486 44.7052 138.971 45.1165C139.387 45.4688 139.891 45.4674 140.322 45.1401C140.845 44.7421 140.753 44.2084 140.488 43.7131C140.262 43.29 139.967 42.9038 139.662 42.438Z" fill="white"/>
<path id="Vector_25" d="M131.301 42.4143C130.963 42.9317 130.641 43.3519 130.397 43.8133C130.137 44.3042 130.152 44.8806 130.673 45.1371C131.018 45.3066 131.594 45.2919 131.944 45.1194C132.453 44.8688 132.399 44.3012 132.178 43.8457C131.949 43.3784 131.634 42.9509 131.301 42.4143Z" fill="white"/>
<path id="Vector_26" d="M139.657 37.4612C139.31 38.0125 138.98 38.4592 138.739 38.9486C138.504 39.4233 138.55 39.9731 139.058 40.2061C139.4 40.3623 139.94 40.3608 140.281 40.2016C140.797 39.9584 140.79 39.4026 140.561 38.9368C140.317 38.4474 139.991 37.9992 139.657 37.4612Z" fill="white"/>
<path id="Vector_27" d="M139.659 47.3616C139.331 47.8731 139.002 48.3183 138.751 48.8033C138.509 49.2721 138.531 49.8352 139.025 50.0711C139.376 50.2391 139.949 50.2332 140.302 50.0637C140.811 49.8175 140.782 49.2559 140.545 48.793C140.296 48.3095 139.973 47.8628 139.659 47.3616Z" fill="white"/>
<path id="Vector_28" d="M135.482 42.4158C135.149 42.9303 134.827 43.3695 134.57 43.8428C134.314 44.3145 134.342 44.8702 134.824 45.1149C135.17 45.2918 135.738 45.2977 136.099 45.1385C136.627 44.9056 136.589 44.3351 136.371 43.8781C136.137 43.3872 135.808 42.942 135.482 42.4158Z" fill="white"/>
<path id="Vector_29" d="M135.478 37.4685C135.143 37.9933 134.818 38.44 134.562 38.9205C134.309 39.3952 134.357 39.9495 134.842 40.1839C135.192 40.3534 135.762 40.349 136.117 40.1824C136.63 39.9392 136.589 39.3716 136.366 38.9147C136.137 38.4459 135.82 38.0184 135.478 37.4685Z" fill="white"/>
<path id="Vector_30" d="M96.6625 61.9999C96.6266 61.7552 96.5593 61.5105 96.5593 61.2643C96.5548 41.0817 96.5533 20.899 96.5653 0.716369C96.5653 0.439228 96.3169 -0.0973648 97.0814 0.0146709C97.0814 20.6808 97.0814 41.3397 97.0814 61.9985C96.9422 61.9999 96.8016 61.9999 96.6625 61.9999Z" fill="white"/>
<path id="Vector_31" d="M135.482 47.3645C135.811 47.8878 136.127 48.3153 136.359 48.7826C136.585 49.2382 136.64 49.8057 136.131 50.0578C135.78 50.2317 135.201 50.2509 134.854 50.0814C134.333 49.8263 134.312 49.2529 134.579 48.7576C134.828 48.2976 135.149 47.8746 135.482 47.3645Z" fill="white"/>
<path id="Vector_32" d="M131.299 47.3809C131.608 47.86 131.911 48.2624 132.14 48.7032C132.384 49.1734 132.487 49.7646 131.962 50.0432C131.611 50.2304 130.99 50.2392 130.644 50.0535C130.104 49.7631 130.159 49.1602 130.441 48.6589C130.673 48.2432 130.972 47.8629 131.299 47.3809Z" fill="white"/>
<path id="Vector_33" d="M139.662 42.438C139.967 42.9023 140.262 43.29 140.488 43.7131C140.753 44.207 140.844 44.7421 140.322 45.1401C139.891 45.4674 139.387 45.4688 138.971 45.1165C138.486 44.7067 138.541 44.1745 138.827 43.6778C139.065 43.262 139.363 42.8773 139.662 42.438Z" fill="white"/>
<path id="Vector_34" d="M131.301 42.4143C131.634 42.9509 131.949 43.3784 132.176 43.8457C132.397 44.3012 132.451 44.8688 131.943 45.1194C131.593 45.2919 131.017 45.3081 130.671 45.1371C130.15 44.8806 130.137 44.3042 130.396 43.8133C130.64 43.3533 130.961 42.9317 131.301 42.4143Z" fill="white"/>
<path id="Vector_35" d="M139.657 37.4612C139.991 37.9992 140.317 38.4474 140.56 38.9368C140.79 39.4026 140.796 39.9584 140.28 40.2016C139.939 40.3623 139.399 40.3638 139.056 40.2061C138.549 39.9731 138.503 39.4233 138.737 38.9486C138.98 38.4592 139.31 38.0125 139.657 37.4612Z" fill="white"/>
<path id="Vector_36" d="M139.659 47.3616C139.973 47.8628 140.296 48.3095 140.545 48.793C140.782 49.2544 140.811 49.8175 140.302 50.0637C139.949 50.2347 139.376 50.2406 139.025 50.0711C138.531 49.8352 138.509 49.2721 138.751 48.8033C139.002 48.3183 139.331 47.8731 139.659 47.3616Z" fill="white"/>
<path id="Vector_37" d="M135.482 42.4158C135.808 42.942 136.137 43.3887 136.371 43.8781C136.589 44.3351 136.627 44.9056 136.099 45.1385C135.738 45.2963 135.169 45.2918 134.824 45.1149C134.342 44.8688 134.315 44.313 134.57 43.8428C134.827 43.3681 135.149 42.9303 135.482 42.4158Z" fill="white"/>
<path id="Vector_38" d="M135.478 37.4685C135.82 38.0184 136.137 38.4459 136.365 38.9147C136.588 39.3716 136.628 39.9392 136.115 40.1824C135.76 40.3505 135.19 40.3534 134.84 40.1839C134.356 39.948 134.308 39.3952 134.561 38.9205C134.818 38.44 135.143 37.9933 135.478 37.4685Z" fill="white"/>
<path id="Vector_39" d="M141.39 31.7902C141.164 31.2094 140.597 30.888 140.024 30.9219C139.774 30.9367 139.544 30.7907 139.427 30.5726C138.16 28.2095 135.328 27.1938 132.852 28.0989C132.528 28.2169 132.17 28.1033 131.956 27.8351C129.467 24.6981 125.624 22.8082 121.522 22.8082C118.045 22.8082 114.879 24.1379 112.514 26.3049V13.7009C112.514 12.6115 111.706 11.6385 110.605 11.5353C109.343 11.4174 108.28 12.3918 108.28 13.6109V50.2835C110.619 50.2835 112.514 48.4157 112.514 46.1116V34.6397C113.12 30.2689 116.923 26.8857 121.522 26.8857C123.978 26.8857 126.3 27.8719 127.989 29.551C128.318 29.8782 128.268 30.4222 127.896 30.7008C125.848 32.231 125.166 35.0407 126.406 37.3522C126.523 37.5704 126.515 37.8401 126.363 38.0347C126.002 38.4947 125.96 39.1595 126.352 39.6769C126.763 40.2209 127.544 40.3433 128.153 40.0263L140.687 33.4973C141.312 33.1744 141.643 32.4403 141.39 31.7902ZM140.416 32.8545L127.763 39.4455C127.437 39.615 127.03 39.4912 126.856 39.1698C126.684 38.8485 126.81 38.4475 127.136 38.2765L139.789 31.6855C140.115 31.516 140.522 31.6398 140.696 31.9612C140.868 32.2826 140.742 32.685 140.416 32.8545Z" fill="white"/>
<g id="Group_2">
<path id="Vector_40" d="M150.293 46.0171H155.817V44.8156H150.293V41.8069H156.468V40.6069H148.921V50.3069H156.541V49.1069H150.293V46.0171Z" fill="white"/>
<path id="Vector_41" d="M170.969 40.6069H169.344L166.319 44.4073L163.266 40.6069H161.628L165.463 45.3626L161.483 50.3069H163.092L166.276 46.3031L169.459 50.3069H171.112L167.132 45.3493L170.969 40.6069Z" fill="white"/>
<path id="Vector_42" d="M180.524 40.6069H176.621V50.3069H177.992V46.9635H180.337C182.373 46.9635 184.428 45.9655 184.428 43.738C184.427 41.8364 182.895 40.6069 180.524 40.6069ZM180.379 45.7635H177.991V41.8202H180.435C182.09 41.8202 183.04 42.5337 183.04 43.7778C183.04 44.9837 181.996 45.7635 180.379 45.7635Z" fill="white"/>
<path id="Vector_43" d="M191.413 46.0171H196.938V44.8156H191.413V41.8069H197.589V40.6069H190.041V50.3069H197.66V49.1069H191.413V46.0171Z" fill="white"/>
<path id="Vector_44" d="M211.733 43.5479C211.733 41.7612 210.252 40.6069 207.96 40.6069H203.493V50.3069H204.865V46.6259H207.588L210.524 50.3069H212.219L209.081 46.3989C210.77 46.0525 211.733 45.022 211.733 43.5479ZM204.864 41.8202H207.872C209.444 41.8202 210.346 42.4644 210.346 43.5877C210.346 44.711 209.37 45.4377 207.859 45.4377H204.864V41.8202Z" fill="white"/>
<path id="Vector_45" d="M216.987 41.8202H220.386V50.3069H221.771V41.8202H225.17V40.6069H216.987V41.8202Z" fill="white"/>
<path id="Vector_46" d="M234.61 44.832C232.365 44.3824 231.953 43.8915 231.953 43.0881C231.953 42.2463 232.792 41.6581 233.994 41.6581C235.041 41.6581 235.946 41.978 236.845 42.6635L236.935 42.7313L237.743 41.7289L237.65 41.6581C236.543 40.8267 235.458 40.4714 234.022 40.4714C232.028 40.4714 230.581 41.6124 230.581 43.1824C230.581 44.9647 231.977 45.6148 234.073 46.0408C236.22 46.4653 236.613 46.9474 236.613 47.7434C236.613 48.6471 235.753 49.2544 234.471 49.2544C233.16 49.2544 232.176 48.8741 231.075 47.9425L230.99 47.8702L230.128 48.824L230.218 48.8992C231.477 49.9517 232.815 50.4426 234.428 50.4426C235.451 50.4426 236.333 50.1817 236.98 49.6864C237.645 49.1763 237.998 48.4673 237.998 47.6358C238 46.1558 236.986 45.317 234.61 44.832Z" fill="white"/>
</g>
<g id="Group_3">
<path id="Vector_47" d="M163.429 22.9379C165.113 22.1418 166.988 20.5689 166.988 17.5115C166.988 13.891 163.908 11.5515 159.141 11.5515H148.921V35.169H159.581C164.965 35.169 168.309 32.6673 168.309 28.6399C168.31 25.8552 166.713 23.9875 163.429 22.9379ZM158.7 21.9753H151.795V14.1475H158.904C162.123 14.1475 164.045 15.5421 164.045 17.8771C164.045 20.4436 162.048 21.9753 158.7 21.9753ZM159.65 32.5685H151.796V24.5403H159.176C163.169 24.5403 165.369 25.9363 165.369 28.4704C165.368 31.0369 163.23 32.5685 159.65 32.5685Z" fill="white"/>
<path id="Vector_48" d="M184.207 11.3835H181.55L170.629 35.1676H173.629L176.443 28.985H189.214L191.995 35.1676H195.129L184.238 11.4499L184.207 11.3835ZM188.059 26.386H177.595L182.844 14.8463L188.059 26.386Z" fill="white"/>
<path id="Vector_49" d="M195.105 14.2153H203.074V35.1675H206.017V14.2153H213.986V11.55H195.105V14.2153Z" fill="white"/>
<path id="Vector_50" d="M234.475 11.55V21.9428H221.004V11.55H218.096V35.1675H221.004V24.6405H234.475V35.1675H237.384V11.55H234.475Z" fill="white"/>
</g>
<path id="Vector_51" d="M140.591 38.7791L140.592 38.7776L140.578 38.7555C140.572 38.7466 140.567 38.7393 140.561 38.7304L139.653 37.3447L138.715 38.7776L138.718 38.7806C138.615 38.9457 138.552 39.1388 138.552 39.3466C138.552 39.9466 139.046 40.4331 139.654 40.4331C140.263 40.4331 140.757 39.9466 140.757 39.3466C140.757 39.1388 140.694 38.9457 140.591 38.7791Z" fill="white"/>
<path id="Vector_52" d="M140.591 43.7249L140.592 43.7234L140.578 43.7013C140.572 43.6924 140.567 43.6851 140.561 43.6762L139.653 42.2905L138.715 43.7234L138.718 43.7264C138.615 43.8915 138.552 44.0846 138.552 44.2924C138.552 44.8924 139.046 45.3789 139.654 45.3789C140.263 45.3789 140.757 44.8924 140.757 44.2924C140.757 44.0831 140.694 43.89 140.591 43.7249Z" fill="white"/>
<path id="Vector_53" d="M140.591 48.6692L140.592 48.6677L140.578 48.6456C140.572 48.6368 140.567 48.6294 140.561 48.6206L139.653 47.2349L138.715 48.6677L138.718 48.6707C138.615 48.8358 138.552 49.0289 138.552 49.2368C138.552 49.8367 139.046 50.3232 139.654 50.3232C140.263 50.3232 140.757 49.8367 140.757 49.2368C140.757 49.0274 140.694 48.8343 140.591 48.6692Z" fill="white"/>
<path id="Vector_54" d="M136.381 38.7791L136.383 38.7776L136.368 38.7555C136.362 38.7466 136.357 38.7393 136.351 38.7304L135.443 37.3447L134.505 38.7776L134.508 38.7806C134.405 38.9457 134.342 39.1388 134.342 39.3466C134.342 39.9466 134.836 40.4331 135.445 40.4331C136.054 40.4331 136.547 39.9466 136.547 39.3466C136.549 39.1388 136.486 38.9457 136.381 38.7791Z" fill="white"/>
<path id="Vector_55" d="M136.381 43.7249L136.383 43.7234L136.368 43.7013C136.362 43.6924 136.357 43.6851 136.351 43.6762L135.443 42.2905L134.505 43.7234L134.508 43.7264C134.405 43.8915 134.342 44.0846 134.342 44.2924C134.342 44.8924 134.836 45.3789 135.445 45.3789C136.054 45.3789 136.547 44.8924 136.547 44.2924C136.549 44.0831 136.486 43.89 136.381 43.7249Z" fill="white"/>
<path id="Vector_56" d="M136.381 48.6692L136.383 48.6677L136.368 48.6456C136.362 48.6368 136.357 48.6294 136.351 48.6206L135.443 47.2349L134.505 48.6677L134.508 48.6707C134.405 48.8358 134.342 49.0289 134.342 49.2368C134.342 49.8367 134.836 50.3232 135.445 50.3232C136.054 50.3232 136.547 49.8367 136.547 49.2368C136.549 49.0274 136.486 48.8343 136.381 48.6692Z" fill="white"/>
<path id="Vector_57" d="M132.173 43.7249L132.175 43.7234L132.16 43.7013C132.154 43.6924 132.149 43.6851 132.143 43.6762L131.235 42.2905L130.297 43.7234L130.3 43.7264C130.197 43.8915 130.134 44.0846 130.134 44.2924C130.134 44.8924 130.628 45.3789 131.237 45.3789C131.845 45.3789 132.339 44.8924 132.339 44.2924C132.339 44.0831 132.276 43.89 132.173 43.7249Z" fill="white"/>
<path id="Vector_58" d="M132.173 48.6692L132.175 48.6677L132.16 48.6456C132.154 48.6368 132.149 48.6294 132.143 48.6206L131.235 47.2349L130.297 48.6677L130.3 48.6707C130.197 48.8358 130.134 49.0289 130.134 49.2368C130.134 49.8367 130.628 50.3232 131.237 50.3232C131.845 50.3232 132.339 49.8367 132.339 49.2368C132.339 49.0274 132.276 48.8343 132.173 48.6692Z" fill="white"/>
</g>
<defs>
<clipPath id="clip0_7244_118">
<rect width="238" height="62" fill="white"/>
</clipPath>
</defs>
</svg>
