<svg xmlns="http://www.w3.org/2000/svg" width="62" height="60" viewBox="0 0 62 60" fill="none">
<path d="M41.6202 18.6726L42.8698 16.6102C42.9428 16.4899 42.9913 16.3564 43.0127 16.2173C43.034 16.0782 43.0277 15.9362 42.9942 15.7995C42.9606 15.6629 42.9005 15.5341 42.8172 15.4207C42.7338 15.3073 42.629 15.2113 42.5086 15.1384C42.3882 15.0655 42.2546 15.017 42.1155 14.9956C41.9763 14.9743 41.8343 14.9806 41.6976 15.0141C41.5609 15.0477 41.4321 15.1078 41.3186 15.1911C41.2051 15.2744 41.1092 15.3792 41.0362 15.4995L39.7865 17.5618C39.7136 17.6822 39.6651 17.8157 39.6437 17.9548C39.6224 18.0939 39.6287 18.2359 39.6622 18.3725C39.6958 18.5092 39.7559 18.6379 39.8392 18.7514C39.9225 18.8648 40.0274 18.9607 40.1478 19.0337C40.2682 19.1066 40.4018 19.1551 40.5409 19.1764C40.6801 19.1978 40.8221 19.1915 40.9588 19.1579C41.0955 19.1244 41.2243 19.0643 41.3378 18.981C41.4512 18.8977 41.5472 18.7929 41.6202 18.6726Z" fill="#032D5B"/>
<path d="M43.28 26.5204C43.497 26.7038 43.7779 26.7936 44.061 26.7701C44.3442 26.7466 44.6065 26.6117 44.7902 26.3951C44.974 26.1784 45.0642 25.8977 45.0412 25.6147C45.0181 25.3316 44.8835 25.0692 44.6671 24.8852L42.744 23.2536C42.5269 23.0708 42.2462 22.9814 41.9633 23.0051C41.6805 23.0288 41.4186 23.1636 41.235 23.38C41.0514 23.5964 40.9612 23.8768 40.984 24.1596C41.0069 24.4424 41.1409 24.7047 41.3569 24.8888L43.28 26.5204Z" fill="#032D5B"/>
<path d="M48.1909 19.8397C48.1664 19.7011 48.1148 19.5686 48.0391 19.4499C47.9633 19.3313 47.8648 19.2287 47.7494 19.1481C47.6339 19.0676 47.5036 19.0106 47.366 18.9804C47.2285 18.9502 47.0863 18.9475 46.9477 18.9724L42.8806 19.6958C42.6168 19.7427 42.3802 19.8866 42.2172 20.0993C42.0543 20.3119 41.9769 20.5778 42.0002 20.8446C42.0236 21.1114 42.1461 21.3598 42.3435 21.5409C42.5409 21.722 42.799 21.8226 43.0669 21.823C43.1303 21.8231 43.1935 21.8175 43.2559 21.8063L47.323 21.0829C47.603 21.0331 47.8517 20.8741 48.0145 20.641C48.1772 20.4078 48.2407 20.1196 48.1909 19.8397Z" fill="#032D5B"/>
<path d="M60.6374 58.0726L28.5111 34.2359L32.2951 29.1782C32.622 29.3764 59.4261 45.3693 59.4476 45.3854C59.6941 45.5253 59.9853 45.5644 60.2601 45.4945C60.5348 45.4245 60.7718 45.2511 60.9215 45.0104C61.0659 44.7658 61.1074 44.474 61.0371 44.1989C60.9668 43.9238 60.7903 43.6877 60.5463 43.5423L33.5814 27.4477L35.9772 24.2491C36.1086 24.0701 36.1816 23.8549 36.1863 23.6329C36.1955 23.4154 36.1375 23.2002 36.0201 23.0168L31.593 16.0571C34.8463 7.13641 47.4042 3.10202 47.5329 3.05916C47.7561 2.99111 47.9507 2.85131 48.0864 2.66144C48.2221 2.47156 48.2912 2.24224 48.2832 2.00904V1.98225C48.2769 1.74905 48.1943 1.52434 48.0482 1.34246C47.902 1.16057 47.7003 1.03151 47.4739 0.974994C31.4 -3.10226 23.95 6.87924 23.4194 7.62932L8.77653 26.7726C8.65005 26.9455 8.57619 27.1512 8.56383 27.365C8.55147 27.5789 8.60114 27.7918 8.70686 27.9781L11.6065 32.9018L10.497 34.3591L5.41597 32.4143C5.19979 32.3328 4.96306 32.3231 4.74097 32.3868C4.51888 32.4506 4.32327 32.5842 4.18323 32.7679L0.742274 37.2631C0.452155 37.6381 0.240089 38.0674 0.11858 38.5256C-0.00292804 38.9839 -0.0314189 39.4618 0.0347879 39.9312C0.0697538 40.1648 0.127191 40.3945 0.2063 40.617C0.436129 41.2727 0.858236 41.844 1.4176 42.2565L12.3461 50.3467C12.9553 50.7981 13.6942 51.0406 14.4525 51.0378C15.0133 51.0382 15.5666 50.9093 16.0695 50.6612C16.5724 50.4131 17.0113 50.0525 17.3521 49.6073L20.5358 45.4443C20.6364 45.3137 20.7052 45.1615 20.7368 44.9997C20.7684 44.8379 20.762 44.671 20.718 44.5121C20.6914 44.4033 20.6461 44.3 20.5841 44.2067L17.8023 39.8723L19.3138 37.8899L23.891 39.2454C24.101 39.3091 24.3255 39.3062 24.5338 39.2371C24.7421 39.168 24.9238 39.0362 25.0541 38.8597L27.2248 35.9558C27.4874 36.1487 59.335 59.7764 59.3618 59.7978C59.5925 59.9617 59.8777 60.0299 60.1576 59.9879C60.4375 59.9459 60.6902 59.7971 60.8625 59.5728C61.0309 59.3437 61.1017 59.0573 61.0595 58.7762C61.0173 58.4952 60.8656 58.2422 60.6374 58.0726ZM23.9071 17.2036C23.8294 17.3209 23.7292 17.4216 23.6123 17.4999C23.4954 17.5783 23.3642 17.6327 23.2262 17.6601C23.0882 17.6875 22.9461 17.6873 22.8081 17.6595C22.6702 17.6318 22.5391 17.577 22.4224 17.4983L19.8819 15.8053L21.1843 14.1015L23.6123 15.7195C23.7297 15.7971 23.8306 15.8973 23.909 16.0141C23.9875 16.1309 24.042 16.2621 24.0694 16.4001C24.0968 16.5381 24.0966 16.6802 24.0687 16.8181C24.0409 16.956 23.9859 17.0871 23.9071 17.2036Z" fill="#032D5B"/>
</svg>