<svg xmlns="http://www.w3.org/2000/svg" width="60" height="60" viewBox="0 0 60 60" fill="none">
<path d="M30 43.4271L43.427 30L30 16.573L16.5729 30L30 43.4271ZM39.0729 30L30 39.073L20.927 30L30 20.9271L39.0729 30Z" fill="#032D5B"/>
<path d="M30 36.5273L36.5273 30L30 23.4727L23.4727 30L30 36.5273Z" fill="#032D5B"/>
<path d="M30 50.3271L50.3271 30L30 9.67297L9.67297 30L30 50.3271ZM45.973 30L30 45.973L14.0271 30L30 14.0271L45.973 30Z" fill="#032D5B"/>
<path d="M30 58.7277L58.7277 30L30 1.27295L1.27295 30L30 58.7277ZM52.8729 30L30 52.8729L7.12772 30L30 7.12772L52.8729 30Z" fill="#032D5B"/>
<path d="M28.727 0H1.40521L15.0075 13.7202L28.727 0Z" fill="#032D5B"/>
<path d="M0 1.4884V28.727L13.5607 15.1664L0 1.4884Z" fill="#032D5B"/>
<path d="M58.5947 0H31.2722L44.9931 13.7209L58.5947 0Z" fill="#032D5B"/>
<path d="M46.4393 15.167L59.9999 28.727V1.4884L46.4393 15.167Z" fill="#032D5B"/>
<path d="M1.92749 60H28.727L15.9641 47.2363L1.92749 60Z" fill="#032D5B"/>
<path d="M14.5159 45.7881L0 31.2722V58.9888L14.5159 45.7881Z" fill="#032D5B"/>
<path d="M60 57.9743V31.2722L47.4027 43.8695L60 57.9743Z" fill="#032D5B"/>
<path d="M45.9538 45.3184L31.2722 59.9999H59.0658L45.9538 45.3184Z" fill="#032D5B"/>
</svg>