<svg xmlns="http://www.w3.org/2000/svg" width="60" height="60" viewBox="0 0 60 60" fill="none">
<path d="M30 0C13.4735 0 0 13.4735 0 30C0 46.5266 13.4735 60 30 60C46.5266 60 60 46.5266 60 30C60 13.4735 46.5929 0 30 0ZM57.2788 30C57.2788 37.0354 54.6239 43.4735 50.2434 48.2522L11.7478 9.75664C16.5929 5.37611 23.031 2.72124 30 2.72124C45.0664 2.72124 57.2788 14.9336 57.2788 30ZM2.72124 30C2.72124 22.9646 5.37611 16.5265 9.75664 11.6814L48.2522 50.177C43.4071 54.5575 36.969 57.2124 29.9336 57.2124C15 57.2788 2.72124 45.0664 2.72124 30Z" fill="#032D5B"/>
<path d="M52.8982 39.4247C53.3628 38.23 52.8319 36.9026 51.6372 36.3716C50.6416 35.9734 49.4469 36.3052 48.8496 37.1681L42.8761 34.7123C43.4071 33.3849 43.6726 31.9247 43.7389 30.3982H45.8628C46.0619 31.1946 46.792 31.792 47.6549 31.792C48.6504 31.792 49.4469 30.9955 49.4469 29.9999C49.4469 29.0044 48.6504 28.2079 47.6549 28.2079C46.792 28.2079 46.0619 28.8052 45.8628 29.6017H43.7389C43.6726 28.0752 43.4071 26.615 42.8761 25.2212L48.8496 22.699C49.4469 23.5619 50.6416 23.8937 51.6372 23.4955C52.8319 23.0309 53.3628 21.6371 52.8982 20.4424C52.4336 19.2477 51.0398 18.7167 49.8451 19.1813C48.8496 19.5796 48.2522 20.6415 48.4513 21.7035L42.4779 24.2256C41.8805 22.8982 41.0177 21.6371 40.0221 20.5752L41.4823 19.115C42.2124 19.5796 43.1416 19.4468 43.7389 18.8495C44.469 18.1194 44.469 16.9911 43.7389 16.261C43.0088 15.5309 41.8805 15.5309 41.1504 16.261C40.5531 16.8583 40.4867 17.7875 40.885 18.5176L39.4248 20.0442C38.3628 19.0486 37.1018 18.1858 35.7743 17.5884L38.2301 11.615C39.292 11.8141 40.354 11.2167 40.7522 10.2212C41.2168 9.02648 40.6858 7.69904 39.4911 7.16807C38.2965 6.70347 36.969 7.23444 36.438 8.42913C36.0398 9.42471 36.3717 10.6194 37.2345 11.2167L34.7788 17.1902C33.4513 16.6592 31.9911 16.3937 30.4646 16.3274V14.2035C31.2611 14.0044 31.8584 13.2743 31.8584 12.4114C31.8584 11.4159 31.0619 10.6194 30.0664 10.6194C29.0708 10.6194 28.2743 11.4159 28.2743 12.4114C28.2743 13.2743 28.8717 14.0044 29.6681 14.2035V16.3274C28.1416 16.3937 26.6814 16.6592 25.2876 17.1902L22.7655 11.2167C23.6283 10.6194 23.9602 9.42471 23.5619 8.42913C23.0973 7.23444 21.7035 6.70347 20.5088 7.16807C19.3142 7.63267 18.7832 9.02648 19.2478 10.2212C19.646 11.2167 20.708 11.8141 21.7699 11.615L24.292 17.5884C23.5619 17.9203 22.8982 18.3185 22.2345 18.7831L41.2832 37.8318C41.7478 37.1681 42.146 36.5044 42.4779 35.7743L48.4513 38.23C48.2522 39.292 48.8496 40.3539 49.8451 40.7521C51.1062 41.2167 52.4336 40.6194 52.8982 39.4247Z" fill="#032D5B"/>
<path d="M18.7832 22.2345C18.3186 22.8983 17.9203 23.562 17.5885 24.2921L11.615 21.8363C11.8141 20.7744 11.2168 19.7124 10.2212 19.3142C9.02654 18.8496 7.6991 19.3806 7.16813 20.5752C6.70353 21.7699 7.2345 23.0974 8.42919 23.6283C9.42477 24.0266 10.6195 23.6947 11.2168 22.8319L17.1903 25.2876C16.6593 26.6151 16.3938 28.0753 16.3274 29.6018H14.2035C14.0044 28.8053 13.2743 28.208 12.4115 28.208C11.4159 28.208 10.6195 29.0045 10.6195 30C10.6195 30.9956 11.4159 31.7921 12.4115 31.7921C13.2743 31.7921 14.0044 31.1947 14.2035 30.3983H16.3274C16.3938 31.9248 16.6593 33.385 17.1903 34.7788L11.2168 37.3009C10.6195 36.4381 9.42477 36.1062 8.42919 36.5045C7.2345 36.9691 6.70353 38.3629 7.16813 39.5576C7.63273 40.7522 9.02654 41.2832 10.2212 40.8186C11.2168 40.4204 11.8141 39.3584 11.615 38.2965L17.5885 35.7744C18.1858 37.1018 19.0487 38.3629 20.0442 39.4248L18.5841 40.885C17.854 40.4204 16.9248 40.5531 16.3274 41.1505C15.5973 41.8806 15.5973 43.0089 16.3274 43.739C17.0575 44.4691 18.1858 44.4691 18.9159 43.739C19.5133 43.1416 19.5796 42.2124 19.1814 41.4823L20.6416 40.0222C21.7035 41.0177 22.9646 41.8806 24.292 42.4779L21.8363 48.4514C20.7743 48.2522 19.7124 48.8496 19.3142 49.8452C18.8495 51.0399 19.3805 52.3673 20.5752 52.8983C21.7699 53.3629 23.0973 52.8319 23.6283 51.6372C24.0265 50.6416 23.6947 49.4469 22.8318 48.8496L25.2876 42.8761C26.615 43.4071 28.0752 43.6726 29.6018 43.739V45.8629C28.8053 46.062 28.208 46.7921 28.208 47.6549C28.208 48.6505 29.0044 49.4469 30 49.4469C30.9956 49.4469 31.792 48.6505 31.792 47.6549C31.792 46.7921 31.1947 46.062 30.3982 45.8629V43.739C31.9248 43.6726 33.3849 43.4071 34.7788 42.8761L37.3009 48.8496C36.438 49.4469 36.1062 50.6416 36.5044 51.6372C36.969 52.8319 38.3628 53.3629 39.5575 52.8983C40.7522 52.4337 41.2832 51.0399 40.8186 49.8452C40.4203 48.8496 39.3584 48.2522 38.2964 48.4514L35.7743 42.4779C36.5044 42.146 37.1681 41.7478 37.8318 41.2832L18.7832 22.2345Z" fill="#032D5B"/>
</svg>