<svg width="16" height="16" viewBox="0 0 16 16" fill="none" xmlns="http://www.w3.org/2000/svg">
<path d="M11.5653 12.5287C12.0773 13.3379 11.8117 14.3936 10.9718 14.887L9.49755 15.7512C9.22007 15.9142 8.90178 16 8.5768 16C8.28224 15.9993 7.99215 15.9307 7.73099 15.7991C5.41016 14.6275 3.46122 12.8733 2.08855 10.7231C0.721156 8.55488 -0.000754687 6.06736 5.05949e-06 3.53025C-0.00147872 2.93336 0.323486 2.37934 0.854719 2.07196L2.32969 1.2077C3.16957 0.715178 4.26476 0.971086 4.77664 1.77958L5.70184 3.24501C6.21378 4.05422 5.94817 5.10941 5.10829 5.6026L4.3441 6.05009C4.11633 6.18162 4.00801 6.44539 4.07997 6.69202C4.58747 8.27182 5.49263 9.70584 6.71534 10.8666C6.90898 11.0453 7.20354 11.0746 7.43057 10.9367L8.19402 10.4892C9.0339 9.99665 10.1291 10.2526 10.641 11.0611L11.5653 12.5287ZM8.05379 5.65829C9.34995 5.8513 10.2381 7.01935 10.0384 8.2675C10.014 8.41762 10.0525 8.57058 10.146 8.69283C10.2388 8.81578 10.379 8.89728 10.5341 8.92015C10.5645 8.92444 10.5949 8.92658 10.6261 8.92658C10.9184 8.92658 11.1669 8.72071 11.2114 8.44193C11.3554 7.54336 11.1232 6.62551 10.566 5.89127C10.0088 5.15642 9.17111 4.66532 8.23848 4.52448C8.08267 4.50161 7.92391 4.53878 7.79703 4.62814C7.67016 4.71821 7.58483 4.8526 7.56109 5.00272C7.51064 5.3151 7.73248 5.60676 8.05671 5.65537L8.05379 5.65829ZM8.59467 2.26418C8.43664 2.23487 8.27267 2.2699 8.14061 2.35926C8.00928 2.44933 7.92174 2.58658 7.89726 2.74026C7.87278 2.89395 7.91433 3.0505 8.01301 3.17346C8.11094 3.29713 8.25635 3.37648 8.41662 3.39434C9.6616 3.57948 10.7791 4.23285 11.523 5.21219C12.2672 6.19082 12.5773 7.4146 12.3852 8.61343C12.3585 8.76498 12.3956 8.92081 12.489 9.0452C12.5818 9.16958 12.7235 9.2525 12.8808 9.27609C13.0388 9.29897 13.1991 9.25965 13.3267 9.16743C13.4543 9.07522 13.5374 8.93726 13.5582 8.785C13.7978 7.28669 13.4091 5.7569 12.4779 4.53446C11.5475 3.31136 10.1504 2.49495 8.59467 2.26418ZM8.95673 0.00376708C8.63917 -0.0312609 8.35056 0.181764 8.30234 0.48557C8.25486 0.7901 8.46482 1.07604 8.77866 1.13322C10.6446 1.41343 12.3193 2.3942 13.4351 3.86249C14.551 5.33006 15.017 7.16436 14.7306 8.96215C14.7039 9.1137 14.741 9.26953 14.8344 9.39392C14.9279 9.5183 15.0689 9.60122 15.2269 9.62481C15.3842 9.64769 15.5452 9.60837 15.6721 9.51615C15.7997 9.42394 15.8836 9.28598 15.9043 9.13372C16.2375 7.03636 15.6929 4.8969 14.3908 3.18549C13.0894 1.47343 11.1358 0.32904 8.95896 0.00366638L8.95673 0.00376708Z" fill="#1CA6A6"/>
</svg>
