
<svg width="58" height="60" viewBox="0 0 58 60" fill="none" xmlns="http://www.w3.org/2000/svg">
<path fill-rule="evenodd" clip-rule="evenodd" d="M41.7189 3.80386V0.816816H41.7215C41.7215 0.616293 41.7944 0.413163 41.9429 0.256914C42.2528 -0.071218 42.771 -0.0868382 43.0992 0.220455L48.3076 5.1346L45.2737 4.52L43.3596 2.71271V4.132L42.7398 4.00699L41.719 3.80126L41.7189 3.80386ZM43.3595 11.0826V31.6483C43.4637 31.69 43.5653 31.7368 43.6616 31.7941C43.6799 31.8046 43.6981 31.8176 43.7163 31.828C44.0262 32.0181 44.284 32.2863 44.4767 32.6197L46.5106 36.1432C46.7164 36.4974 46.8179 36.8802 46.8179 37.2604C46.8179 37.6406 46.7164 38.0234 46.5106 38.3776L46.508 38.3802H46.5106C46.3075 38.7318 46.0288 39.0104 45.6955 39.2032C45.6772 39.2136 45.6564 39.224 45.6382 39.2344C45.3153 39.4089 44.9533 39.5027 44.573 39.5027H40.5052C40.1016 39.5027 39.7214 39.3985 39.3854 39.2058L39.3828 39.2032V39.2058C39.0495 39.0131 38.7682 38.7344 38.5677 38.3828C38.5573 38.3646 38.5468 38.3464 38.5364 38.3255C38.3515 37.9844 38.2578 37.6224 38.2578 37.2604C38.2578 36.8802 38.3593 36.4974 38.5651 36.1432L38.5677 36.1406H38.5651L40.599 32.617C40.8021 32.2655 41.0808 31.9868 41.4141 31.7941C41.4324 31.7837 41.4532 31.7733 41.4714 31.7629C41.5495 31.7212 41.6329 31.6821 41.7162 31.6483V10.7493L43.3568 11.08L43.3595 11.0826ZM45.0966 36.9577L43.0627 33.4342C43.0106 33.3457 42.9455 33.2753 42.8726 33.2259L42.8439 33.2102C42.7606 33.1634 42.659 33.1373 42.5418 33.1373C42.4351 33.1373 42.3413 33.1581 42.2632 33.1972L42.2397 33.2128C42.1538 33.2623 42.0783 33.3404 42.021 33.4394L39.9871 36.9629H39.9845C39.9298 37.0567 39.9038 37.1608 39.9038 37.2624C39.9038 37.3562 39.9272 37.4473 39.9715 37.5359L39.9871 37.5619C40.0444 37.6609 40.1199 37.739 40.2058 37.7885V37.7911C40.2866 37.8379 40.3907 37.864 40.5079 37.864H44.5757C44.6825 37.864 44.7763 37.8432 44.8544 37.8041L44.8778 37.7885C44.9638 37.739 45.0393 37.6609 45.0966 37.5619H45.0992C45.1539 37.4682 45.1799 37.364 45.1799 37.2624C45.1799 37.1582 45.1513 37.0541 45.0966 36.9603V36.9577ZM28.6276 18.1894H19.8202C19.216 18.1894 18.6691 18.4368 18.2707 18.8353C17.8722 19.2337 17.6248 19.7832 17.6248 20.3848V22.5801H30.823V20.3848C30.823 19.7806 30.5757 19.2337 30.1772 18.8353C29.7788 18.4368 29.2292 18.1894 28.6276 18.1894ZM19.0128 29.6116C18.8436 30.0283 18.367 30.2314 17.9477 30.0595C17.531 29.8903 17.3279 29.4137 17.4998 28.9944L18.3487 26.9162C18.518 26.4995 18.9945 26.2964 19.4139 26.4683C19.8331 26.6376 20.0337 27.1141 19.8618 27.5334L19.0128 29.6116ZM16.8826 34.8252C16.7133 35.2419 16.2368 35.445 15.8174 35.2731C15.4008 35.1039 15.1976 34.6273 15.3695 34.208L16.2185 32.1298C16.3877 31.7131 16.8643 31.51 17.2836 31.6819C17.7029 31.8512 17.9034 32.3277 17.7315 32.747L16.8826 34.8252ZM14.7524 40.0388C14.5831 40.4555 14.1065 40.6586 13.6872 40.4868C13.2705 40.3175 13.0674 39.8409 13.2393 39.4216L14.0882 37.3434C14.2575 36.9268 14.7341 36.7236 15.1534 36.8955C15.5701 37.0648 15.7732 37.5414 15.6013 37.9607L14.7524 40.0388ZM12.6221 45.2524C12.4529 45.6691 11.9763 45.8722 11.557 45.7004C11.1403 45.5311 10.9372 45.0545 11.1091 44.6352L11.958 42.5571C12.1273 42.1404 12.6038 41.9373 13.0232 42.1091C13.4398 42.2784 13.643 42.755 13.4711 43.1743L12.6221 45.2524ZM10.4919 50.4661C10.3226 50.8827 9.84605 51.0859 9.42675 50.914C9.01007 50.7447 8.80694 50.2681 8.97882 49.8488L9.82777 47.7707C9.99704 47.354 10.4736 47.1509 10.8929 47.3227C11.3096 47.492 11.5127 47.9686 11.3408 48.3879L10.4919 50.4661ZM37.1123 48.3879C36.943 47.9712 37.1436 47.4947 37.5602 47.3227C37.9769 47.1535 38.4534 47.354 38.6254 47.7707L39.4743 49.8488C39.6436 50.2655 39.4431 50.7421 39.0264 50.914C38.6097 51.0833 38.1332 50.8827 37.9613 50.4661L37.1123 48.3879ZM34.9821 43.1743C34.8128 42.7576 35.0133 42.2811 35.43 42.1091C35.8467 41.9399 36.3232 42.1404 36.4952 42.5571L37.3441 44.6352C37.5134 45.0519 37.3129 45.5284 36.8962 45.7004C36.4795 45.8696 36.003 45.6691 35.831 45.2524L34.9821 43.1743ZM32.8518 37.9607C32.6826 37.544 32.8831 37.0675 33.2998 36.8955C33.7164 36.7262 34.193 36.9268 34.3649 37.3434L35.2139 39.4216C35.3831 39.8383 35.1826 40.3148 34.7659 40.4868C34.3493 40.656 33.8727 40.4555 33.7008 40.0388L32.8518 37.9607ZM30.7216 32.7471C30.5523 32.3304 30.7529 31.8538 31.1695 31.6819C31.5888 31.5126 32.0628 31.7132 32.2347 32.1298L33.0836 34.208C33.2529 34.6247 33.0524 35.1012 32.6357 35.2731C32.219 35.4424 31.7425 35.2419 31.5706 34.8252L30.7216 32.7471ZM28.5914 27.5334C28.4221 27.1168 28.6226 26.6402 29.0393 26.4683C29.456 26.299 29.9325 26.4995 30.1045 26.9162L30.9534 28.9944C31.1227 29.4111 30.9221 29.8876 30.5055 30.0595C30.0888 30.2288 29.6123 30.0283 29.4403 29.6116L28.5914 27.5334ZM23.409 48.0751C23.409 47.622 23.7762 47.2547 24.2294 47.2547C24.6825 47.2547 25.0497 47.6219 25.0497 48.0751V50.1533C25.0497 50.6064 24.6825 50.9736 24.2294 50.9736C23.7762 50.9736 23.409 50.6064 23.409 50.1533V48.0751ZM23.409 42.8615C23.409 42.4083 23.7762 42.0411 24.2294 42.0411C24.6825 42.0411 25.0497 42.4083 25.0497 42.8615V44.9396C25.0497 45.3928 24.6825 45.76 24.2294 45.76C23.7762 45.76 23.409 45.3928 23.409 44.9396V42.8615ZM23.409 37.6479C23.409 37.1947 23.7762 36.8275 24.2294 36.8275C24.6825 36.8275 25.0497 37.1947 25.0497 37.6479V39.726C25.0497 40.1792 24.6825 40.5464 24.2294 40.5464C23.7762 40.5464 23.409 40.1792 23.409 39.726V37.6479ZM23.409 32.4342C23.409 31.9811 23.7762 31.6139 24.2294 31.6139C24.6825 31.6139 25.0497 31.9811 25.0497 32.4342V34.5124C25.0497 34.9655 24.6825 35.3328 24.2294 35.3328C23.7762 35.3328 23.409 34.9656 23.409 34.5124V32.4342ZM23.409 27.2206C23.409 26.7675 23.7762 26.4003 24.2294 26.4003C24.6825 26.4003 25.0497 26.7675 25.0497 27.2206V29.2988C25.0497 29.7519 24.6825 30.1191 24.2294 30.1191C23.7762 30.1191 23.409 29.752 23.409 29.2988V27.2206ZM27.6096 16.5458V15.6604C27.6096 15.4182 27.5107 15.1968 27.3492 15.0354C27.1878 14.8739 26.9664 14.775 26.7242 14.775H21.7397C21.4975 14.775 21.2762 14.8739 21.1147 15.0354C20.9533 15.1968 20.8543 15.4182 20.8543 15.6604V16.5458H27.6124H27.6096ZM22.62 13.1317H25.8387V7.55346C25.8387 7.06386 25.9064 6.69931 26.1669 6.39717C26.482 6.03258 26.8934 5.9232 27.5158 6.0482L42.6334 9.10552C42.6855 9.11073 42.735 9.12115 42.7818 9.13677L51.696 10.9389V7.64715L48.0215 6.90494C47.9876 6.89973 47.9563 6.89452 47.9251 6.88671L42.4563 5.77989C42.4068 5.77468 42.3573 5.76426 42.3078 5.74864L28.1563 2.88919C27.7969 2.81627 27.4375 2.78242 27.0781 2.78242C25.9818 2.78242 25.0052 3.1392 24.2526 3.76423C23.4921 4.39445 22.9505 5.30333 22.7291 6.40228C22.6587 6.75645 22.6197 7.14189 22.6197 7.55596V13.1342L22.62 13.1317ZM57.9358 39.5021H51.9539C51.9409 39.5021 51.9279 39.5073 51.9175 39.5177C51.9071 39.5281 51.9019 39.5412 51.9019 39.5542V43.8407C51.9019 43.8537 51.9071 43.8668 51.9175 43.8772C51.9279 43.8876 51.9409 43.8928 51.9539 43.8928H57.9358C57.9489 43.8928 57.9619 43.8876 57.9723 43.8772C57.9827 43.8668 57.9879 43.8537 57.9879 43.8407V39.5542C57.9879 39.5412 57.9827 39.5281 57.9723 39.5177C57.9619 39.5073 57.9489 39.5021 57.9358 39.5021ZM56.553 45.536H53.3342V59.0443C53.3342 59.3073 53.441 59.5469 53.6155 59.7187C53.79 59.8932 54.027 60 54.29 60H55.5973C55.8603 60 56.0999 59.8932 56.2717 59.7187C56.4462 59.5443 56.553 59.3073 56.553 59.0443L56.553 45.536ZM53.3342 37.8639H56.553L56.5478 5.49076C56.5478 5.22773 56.441 4.98814 56.2666 4.81628C56.0921 4.6418 55.8551 4.53502 55.5921 4.53502H54.2848C54.0218 4.53502 53.7822 4.6418 53.6103 4.81628C53.4358 4.99076 53.3291 5.22775 53.3291 5.49076V37.8613L53.3342 37.8639ZM8.44553 6.2621H6.82571V8.24393C6.82571 8.69707 6.45851 9.06428 6.00536 9.06428H4.02353V10.6841H6.00536C6.45849 10.6841 6.82571 11.0513 6.82571 11.5044V13.4863H8.44553V11.5044C8.44553 11.0513 8.81272 10.6841 9.26588 10.6841H11.2477V9.06428H9.26588C8.81274 9.06428 8.44553 8.69709 8.44553 8.24393V6.2621ZM6.00536 4.62148H9.26581C9.71895 4.62148 10.0862 4.98867 10.0862 5.44182V7.42365H12.068C12.5211 7.42365 12.8883 7.79085 12.8883 8.244V11.5044C12.8883 11.9576 12.5211 12.3248 12.068 12.3248H10.0862V14.3066C10.0862 14.7598 9.71897 15.127 9.26581 15.127H6.00536C5.55223 15.127 5.18501 14.7598 5.18501 14.3066V12.3248H3.20318C2.75005 12.3248 2.38284 11.9576 2.38284 11.5044V8.244C2.38284 7.79087 2.75003 7.42365 3.20318 7.42365H5.18501V5.44182C5.18501 4.98869 5.55221 4.62148 6.00536 4.62148ZM13.0341 4.47564C14.4144 5.85586 15.2712 7.76476 15.2712 9.87419C15.2712 11.9836 14.417 13.8925 13.0341 15.2727C11.6539 16.653 9.74502 17.5098 7.63559 17.5098C5.52615 17.5098 3.61732 16.6556 2.23704 15.2727C0.856813 13.8925 0 11.9836 0 9.87419C0 7.76476 0.854147 5.85593 2.23704 4.47564C3.61726 3.09542 5.52615 2.2386 7.63559 2.2386C9.74502 2.2386 11.6538 3.09275 13.0341 4.47564Z" fill="#032D5B"/>
</svg>
